<?xml version="1.0" encoding="UTF-8" standalone="no"?>
<!-- Created with Inkscape (http://www.inkscape.org/) -->
<!DOCTYPE svg PUBLIC "-//W3C//DTD SVG 1.1//EN" "http://www.w3.org/Graphics/SVG/1.1/DTD/svg11.dtd">
<svg
   xmlns:svg="http://www.w3.org/2000/svg"
   xmlns="http://www.w3.org/2000/svg"
   version="1.1"
   width="400"
   height="185"
   id="svg2816"
   xml:space="preserve"><defs
     id="defs2820" /><g
     transform="matrix(1.25,0,0,-1.25,0,185)"
     id="g2826"><g
       transform="matrix(1.1982397,0,0,1.1982397,-54.71661,-12.87112)"
       id="g3070"><path
         d="m 157.00969,97.457772 1.65606,11.694828 -14.69473,-3.31247 c 0,0 -0.4141,3.93345 0.20688,5.69261 0,0 10.65888,2.27634 15.93651,2.27634 l 4.24342,14.38459 c 0,0 -29.70099,-5.17367 -35.91061,-8.48614 0,0 5.58864,-20.594389 7.55485,-41.705623 0,0 28.25163,3.312122 31.66771,5.484686 0,0 -4.76061,9.830161 -5.27832,12.31581 l -15.00557,-4.346858 -1.55263,4.243073 c 0,0 6.93318,1.655369 11.17643,1.759154"
         id="path2838"
         style="fill:#231f20;fill-opacity:1;fill-rule:evenodd;stroke:none" /><path
         d="m 159.28673,115.36067 c 0,0 -15.72981,-1.75916 -16.66163,-2.68976 0,0 -0.10344,-7.1404 0.31084,-8.48615 l 14.17788,3.51831 -1.34592,-9.003339 c 0,0 -6.10549,-0.413409 -11.27986,-1.966724 0,0 0.4141,-4.243073 1.65537,-6.623207 0,0 13.76361,3.104899 15.62655,3.933449 0,0 2.69045,-7.555542 3.82897,-9.831891 0,0 -22.66369,-4.760787 -28.1482,-4.450124 0,0 -2.27635,16.765933 -3.82914,23.802546 -1.55193,7.03662 -4.03585,15.10936 -4.03585,15.10936 0,0 14.07444,5.48503 32.18422,7.45002 0,0 -2.27635,-8.38063 -2.48323,-10.76249"
         id="path2840"
         style="fill:#fbc707;fill-opacity:1;fill-rule:evenodd;stroke:none" /><path
         d="m 112.92411,105.42672 c 0,0 5.17437,0.41341 6.62303,0.82855 0,0 -0.31014,10.96834 -0.82768,17.28192 0,0 6.62303,0.72476 9.62449,1.34574 3.00129,0.61925 5.69122,1.03439 5.69122,1.03439 l -1.44867,-44.499852 -13.35019,-1.449356 0.62167,15.938076 c 0,0 -3.41556,0.41341 -6.93387,-1.138175 0,0 -6.9e-4,-10.970065 1.03439,-13.971524 0,0 -11.48657,-1.552104 -14.177713,-3.00146 0,0 -0.827166,4.450124 -0.517022,16.765414 0.310144,12.314077 -0.103958,28.148197 1.137825,31.149307 0,0 11.48744,-1.24196 13.76379,-1.86293 0,0 -1.75881,-14.28081 -1.24127,-18.4201"
         id="path2842"
         style="fill:#231f20;fill-opacity:1;fill-rule:evenodd;stroke:none" /><path
         d="m 112.30313,122.60486 c 0,0 -1.03508,-16.14375 -0.72425,-18.83351 l 9.72776,1.55159 c 0,0 -0.31083,12.833 -1.03508,16.35131 0,0 10.65958,3.00111 11.90136,2.5877 l -0.93112,-41.292551 -10.14256,-1.138521 0.31084,16.247874 c 0,0 -5.69208,-0.82682 -10.03808,-2.691489 0,0 -0.10395,-10.141515 0.93113,-13.038844 0,0 -9.72845,-1.862766 -10.86628,-3.001287 0,0 -1.03526,40.152828 0,44.603468 0,0 9.21022,-1.03439 10.86628,-1.34574"
         id="path2844"
         style="fill:#fbc707;fill-opacity:1;fill-rule:evenodd;stroke:none" /><path
         d="m 71.632416,120.53608 c 0,0 30.529374,8.89955 34.565214,7.96722 0,0 -1.65675,-14.28081 -1.96689,-14.59216 l -9.003516,-1.86121 c 0,0 -0.310144,-10.14324 3.001459,-31.875113 0,0 -11.383994,-1.862247 -14.074444,-6.208759 0,0 -0.931124,18.939016 -1.138521,25.664278 -0.206878,6.726994 -0.310836,10.141514 -0.310836,10.141514 l -9.417096,-2.89733 c 0,0 -1.448665,11.27969 -1.65537,13.66156"
         id="path2846"
         style="fill:#231f20;fill-opacity:1;fill-rule:evenodd;stroke:none" /><path
         d="m 73.391224,119.81131 c 0,0 0.62098,-9.62432 1.034563,-10.97006 0,0 8.693889,3.62209 10.142553,2.89733 0,0 -0.103266,-14.073238 0.103439,-19.97341 0.206705,-5.898443 0.310144,-13.970141 0.310144,-13.970141 0,0 7.865686,4.345993 11.48726,3.621747 0,0 -1.552103,12.832313 -1.758808,16.144781 -0.207397,3.310743 -1.24196,13.452253 -1.035082,15.626543 0,0 6.829737,2.17257 9.210217,1.34575 0,0 1.24196,10.34735 1.34523,12.31408 0,0 -16.868337,-2.89733 -30.839516,-7.03662"
         id="path2848"
         style="fill:#fbc707;fill-opacity:1;fill-rule:evenodd;stroke:none" /><path
         d="m 283.99018,57.407694 c 0,0 11.27969,7.347453 15.00557,7.55485 0,0 -1.965,9.521054 -9.00334,12.419075 -7.03662,2.897329 -32.06608,5.65524 -39.53167,-17.180035 -1.76089,-5.381075 2.06877,-16.039266 12.72748,-15.832561 10.66044,0.206013 23.28588,-1.7595 24.01064,-6.209451 0.72304,-4.450124 -16.45509,-9.521747 -16.87023,-7.969124 -0.41168,1.552103 3.10662,5.795349 3.10662,5.795349 0,0 -8.59166,1.034562 -16.04168,3.414869 0,0 -6.07142,-8.449994 -2.48392,-15.626375 1.55331,-3.104898 13.66155,-9.314349 25.56222,-6.313063 11.90067,3.00146 26.07769,12.729911 25.5605,21.733425 -0.5172,9.002822 -12.31408,16.454233 -22.97452,16.454233 -10.65871,0 -16.55716,0.931124 -16.76473,1.552103 -0.20757,0.62098 5.69088,6.623726 10.14152,6.519595 4.45064,-0.103439 6.41564,-4.967664 7.55554,-6.31289"
         id="path2850"
         style="fill:#231f20;fill-opacity:1;fill-rule:evenodd;stroke:none" /><path
         d="m 285.33592,59.47803 c 0,0 9.00335,6.622342 11.59105,6.7263 0,0 -3.31247,7.451584 -7.34797,9.417097 -4.03724,1.966205 -26.80419,7.187105 -35.80753,-13.142802 -3.20868,-7.244014 1.55332,-14.384589 7.03662,-15.626375 5.48503,-1.241959 7.55554,-1.034563 13.45398,-1.655542 5.89845,-0.621672 16.35132,-2.691143 15.93618,-6.623726 -0.41341,-3.931719 -9.51881,-9.210911 -16.34959,-9.72776 -6.83077,-0.516849 -5.07162,2.587185 -3.20868,5.796041 l -11.59104,2.793198 c 0,0 -5.38125,-7.554849 -1.13818,-12.729219 4.24307,-5.173678 14.79973,-6.208067 19.45621,-5.794657 4.65649,0.413582 18.11047,4.656829 24.31854,14.488719 6.20979,9.830507 -2.89733,16.971081 -10.34736,18.834021 -7.45175,1.862766 -14.38459,2.483745 -17.90463,2.483745 -3.5183,0 -8.5882,0 -8.79577,1.759501 -0.20584,1.7595 6.50559,9.417615 13.14263,9.417615 2.17257,0 5.17541,-2.69045 7.55554,-6.416156"
         id="path2852"
         style="fill:#fbc707;fill-opacity:1;fill-rule:evenodd;stroke:none" /><path
         d="m 239.80202,60.719298 c 0,0 -0.51892,-4.760268 0.20584,-7.761728 0,0 13.55777,2.898021 17.59328,3.312296 0,0 -1.86294,-10.246166 -1.86294,-16.351486 0,0 -12.83301,-1.241267 -13.97118,-1.552103 0,0 5.06989,-13.142802 7.86517,-16.350794 0,0 -16.4551,-2.690624 -21.31915,-4.450816 0,0 -9.83017,49.260643 -7.75966,56.504657 0,0 34.56384,8.692505 41.39461,7.761554 l -1.03438,-17.696711 c 0,0 -15.31693,-2.172391 -21.11159,-3.414869"
         id="path2854"
         style="fill:#231f20;fill-opacity:1;fill-rule:evenodd;stroke:none" /><path
         d="m 238.24871,62.064523 21.52499,3.725705 0.62098,14.695425 c 0,0 -30.52833,-5.071623 -38.18593,-7.968952 0,0 0.62098,-20.59352 7.96722,-52.571554 0,0 13.65983,3.829144 16.4551,3.518309 0,0 -6.51942,12.005492 -6.51942,16.041341 l 14.2808,1.758809 0.82855,13.143321 -16.8685,-3.41487 c 0,0 -0.82855,5.277117 -0.10379,11.072466"
         id="path2856"
         style="fill:#fbc707;fill-opacity:1;fill-rule:evenodd;stroke:none" /><path
         d="m 233.17709,50.78466 c 9.19361,18.741998 -3.51831,21.525164 -12.10824,22.97452 -8.58993,1.448664 -32.08165,-2.690451 -32.08165,-2.690451 -1.13644,-3.933275 -6.20979,-52.054705 -6.20979,-52.054705 3.10662,0 16.55888,2.380479 16.55888,2.380479 0.0969,2.676267 0.22487,5.210868 0.37535,7.619024 8.53804,-6.538623 21.46099,-12.58738 21.46099,-12.58738 l 11.58932,12.62578 c -3.10317,0.827685 -20.38509,8.589931 -20.38509,8.589931 6.41564,1.449356 18.11047,7.658289 20.80023,13.142802 z m -30.21871,-2.587185 c -0.44973,-0.05673 -0.89947,-0.138552 -1.34747,-0.241991 1.19871,8.315074 2.38359,12.556936 2.38359,12.556936 3.41452,0.724418 13.24642,-0.103266 13.96945,-4.345993 0.72476,-4.243246 -7.6576,-7.037136 -15.00557,-7.968952"
         id="path2858"
         style="fill:#231f20;fill-opacity:1;fill-rule:evenodd;stroke:none" /><path
         d="m 230.17597,50.371077 c 4.96784,7.864994 5.58882,13.763782 -0.30962,18.213733 -5.89844,4.450124 -20.07546,5.484514 -39.42962,1.138521 0,0 -5.6926,-46.052479 -5.58881,-49.053938 l 13.24814,2.691316 c 0,0 0.2093,3.71498 0.56044,8.867036 3.52522,-2.955448 9.52572,-7.244705 21.27417,-13.627823 l 9.31297,9.728451 c 0,0 -19.55827,7.554677 -21.62878,10.037904 0,0 17.59328,4.139288 22.56111,12.0048 z m -30.44703,-4.130466 c 0.65385,7.464384 1.43396,14.315744 2.19505,16.134748 0,0 15.89293,2.387745 17.90463,-6.105493 0.89947,-3.807523 -9.83708,-9.747479 -20.09968,-10.029255"
         id="path2860"
         style="fill:#fbc707;fill-opacity:1;fill-rule:evenodd;stroke:none" /><path
         d="m 174.81018,74.483598 -19.04176,2.898021 c 0,0 -7.62162,-16.687403 -10.14186,-24.630062 -3.41504,-10.763014 -7.14075,-28.148889 2.58718,-33.323259 9.72776,-5.174369 20.90557,-1.034562 27.94219,1.759328 7.03662,2.794062 12.52165,5.587952 12.52165,5.587952 0,0 -2.38014,12.729219 -2.79355,21.215192 -0.41514,8.485801 -0.9306,16.868335 0.5172,22.560245 0,0 -9.72811,-4.967492 -17.48949,-7.657423 0,0 -0.10378,-10.660267 3.20696,-27.632041 0,0 -8.79612,-5.277808 -12.4177,-1.655542 -3.62243,3.622439 2.58719,17.489487 5.38108,23.077958 2.79354,5.587953 9.7281,17.799631 9.7281,17.799631"
         id="path2862"
         style="fill:#231f20;fill-opacity:1;fill-rule:evenodd;stroke:none" /><path
         d="m 172.01664,73.138892 c 0,0 -11.17781,1.034563 -14.38528,2.586493 0,0 -8.2784,-14.902821 -10.76301,-25.354308 -2.48375,-10.452005 -8.79595,-31.978033 9.10695,-31.252923 17.90428,0.724246 31.04691,8.278404 31.04691,8.278404 0,0 -2.07051,8.07239 -2.89733,21.525163 -0.82855,13.453638 -0.10378,18.317864 -0.10378,18.317864 L 170.46333,61.1334 c 0,0 0.72476,-14.281842 3.5183,-26.699533 0,0 -10.63812,-6.765047 -15.72929,-2.691316 -3.10473,2.484438 -1.86294,8.485973 2.17291,19.145548 4.03585,10.659575 11.59139,22.250793 11.59139,22.250793"
         id="path2864"
         style="fill:#fbc707;fill-opacity:1;fill-rule:evenodd;stroke:none" /><path
         d="m 103.50649,73.241639 c 0,0 10.65889,4.967665 14.38459,6.415637 0,0 3.00198,-21.732733 4.86423,-25.457746 0,0 5.69121,18.317171 6.31289,19.55965 l 14.79886,3.828452 c 0,0 0.93112,-18.007028 3.00059,-28.044931 2.07034,-10.037904 4.14068,-20.075807 6.51977,-24.319226 0,0 -15.41984,-5.795177 -16.97177,-7.140575 0,0 -3.62244,12.106856 -4.24273,19.765836 l -9.52105,-20.179938 c 0,0 -7.03645,15.627067 -8.0717,19.352253 l 0.41358,-16.247527 c 0,0 -10.55562,-4.55339 -18.213731,-2.587877 0,0 6.725781,50.709307 6.726471,55.055992"
         id="path2866"
         style="fill:#231f20;fill-opacity:1;fill-rule:evenodd;stroke:none" /><path
         d="m 105.16255,72.000372 11.38382,5.070411 c 0,0 4.03585,-22.560418 5.69209,-26.286123 l 1.24109,0 c 0,0 5.89879,17.282609 7.24402,21.008315 0,0 10.03876,3.208164 11.48743,3.622266 0,0 1.03508,-14.281841 2.79458,-24.527142 1.7595,-10.244781 5.89862,-25.353788 5.89862,-25.353788 0,0 -11.27987,-3.311431 -13.34934,-5.17437 0,0 -3.41573,13.142802 -4.13998,21.007795 l -1.7595,-0.517713 -9.41692,-18.213733 c 0,0 -5.69209,12.315809 -7.65829,19.663089 0,0 -1.44936,-0.310836 -1.44936,-0.931643 0,-0.620979 0.41428,-19.352253 0.41428,-19.352253 0,0 -9.10696,-4.036541 -14.384591,-2.277041 0,0 5.587781,49.053765 6.002051,52.26193"
         id="path2868"
         style="fill:#fbc707;fill-opacity:1;fill-rule:evenodd;stroke:none" /><path
         d="m 86.948128,58.546215 c 0,0 10.659575,6.31289 14.798862,8.69337 0,0 -2.276347,6.519595 -6.416327,9.623801 C 91.191374,79.968112 81.153471,85.557102 63.353321,74.483598 45.553171,63.41044 53.004582,48.921721 60.248595,46.541414 c 7.244014,-2.379788 12.211506,0 22.146835,-2.276349 9.934465,-2.276522 10.762322,-4.966973 7.140575,-7.761727 -3.622266,-2.79389 -13.764301,-6.623726 -14.695424,-5.070931 -0.931124,1.552795 2.690624,5.381766 2.690624,5.381766 l -15.937384,3.311604 c 0,0 -7.554158,-9.934638 -2.587185,-15.730679 4.967665,-5.795176 18.523877,-7.140575 26.596267,-5.381074 8.07239,1.758808 25.975977,12.832658 24.526627,22.974519 -1.44867,10.141343 -16.144093,15.52259 -24.112525,15.212446 -7.96826,-0.310836 -16.247355,-0.414274 -15.212273,2.690451 1.034389,3.104899 7.554157,6.416329 10.865588,4.243419 3.311603,-2.173775 5.277808,-5.588644 5.277808,-5.588644"
         id="path2870"
         style="fill:#231f20;fill-opacity:1;fill-rule:evenodd;stroke:none" /><path
         d="m 87.983383,60.822564 c 0,0 8.072217,6.209624 11.48726,7.140575 0,0 -2.690624,7.141439 -7.864994,9.521054 -5.174369,2.38048 -15.00626,4.035849 -26.907103,-4.035849 C 52.797185,65.376646 54.556512,53.268406 60.248595,49.749579 65.940506,46.23127 74.32304,46.437975 78.87643,46.333844 83.42982,46.23127 95.330663,43.954921 94.710375,40.332482 94.089395,36.710216 88.70832,32.880379 83.740656,31.328968 c -4.967665,-1.55193 -9.624321,-2.277041 -10.142727,0.206878 -0.516848,2.483746 1.552796,4.346685 1.552796,4.346685 l -11.176424,2.277041 c 0,0 -5.485206,-8.175829 -1.966897,-11.900843 3.518827,-3.726397 12.212197,-7.658807 20.801436,-6.002746 8.589412,1.656061 21.93944,9.106088 24.31992,17.592753 2.38048,8.4858 -4.45064,13.556904 -9.314352,15.005568 -4.863533,1.448665 -12.107547,3.208165 -21.731868,2.897329 -9.624493,-0.310144 -12.108239,3.519 -6.002746,7.244706 6.106012,3.725705 10.349431,4.760786 13.143321,3.001286 2.79389,-1.7595 3.725705,-3.933102 4.760268,-5.175061"
         id="path2872"
         style="fill:#fbc707;fill-opacity:1;fill-rule:evenodd;stroke:none" /></g></g></svg>